<?xml version="1.0" standalone="no"?>
<!DOCTYPE svg PUBLIC "-//W3C//DTD SVG 20010904//EN"
 "http://www.w3.org/TR/2001/REC-SVG-20010904/DTD/svg10.dtd">
<svg version="1.0" xmlns="http://www.w3.org/2000/svg"
 width="681.000000pt" height="681.000000pt" viewBox="0 0 681.000000 681.000000"
 preserveAspectRatio="xMidYMid meet">
<metadata>
Created by potrace 1.11, written by Peter Selinger 2001-2013
</metadata>
<g transform="translate(0.000000,681.000000) scale(0.100000,-0.100000)"
fill="#000000" stroke="none">
<path d="M3068 6765 c-1 -1 -41 -5 -88 -9 -47 -3 -96 -8 -110 -10 -14 -3 -61
-10 -105 -16 -44 -7 -89 -14 -100 -17 -11 -2 -35 -6 -54 -9 -19 -2 -37 -6 -41
-9 -4 -2 -20 -6 -36 -9 -16 -3 -54 -13 -84 -21 -30 -8 -66 -18 -80 -21 -62
-13 -285 -92 -367 -129 -17 -8 -34 -15 -37 -15 -12 0 -201 -95 -204 -102 -2
-5 -12 -8 -23 -8 -10 0 -19 -4 -19 -10 0 -5 -5 -10 -10 -10 -18 0 -280 -158
-307 -186 -8 -8 -24 -19 -36 -26 -94 -49 -481 -404 -587 -537 -19 -24 -40 -48
-46 -55 -48 -51 -244 -329 -244 -346 0 -5 -6 -15 -13 -22 -13 -13 -53 -83
-128 -224 -21 -39 -35 -74 -32 -78 4 -3 1 -6 -5 -6 -7 0 -12 -9 -12 -20 0 -11
-4 -20 -10 -20 -5 0 -10 -8 -10 -18 0 -10 -6 -26 -14 -37 -7 -11 -19 -38 -26
-60 -7 -22 -18 -49 -25 -60 -6 -11 -14 -31 -17 -45 -3 -14 -18 -58 -32 -97
-26 -72 -81 -265 -91 -319 -2 -16 -7 -40 -10 -54 -3 -14 -8 -37 -10 -52 -2
-15 -8 -53 -14 -85 -31 -177 -36 -258 -36 -528 1 -143 4 -287 9 -320 4 -33 9
-78 11 -100 3 -22 7 -58 11 -80 4 -22 8 -49 10 -60 2 -11 5 -27 7 -35 2 -8 8
-37 12 -65 10 -56 10 -55 17 -75 3 -8 16 -55 28 -105 24 -94 98 -318 132 -395
42 -97 52 -119 101 -220 28 -58 55 -106 59 -108 4 -2 8 -8 8 -12 0 -8 48 -92
95 -165 11 -17 30 -47 42 -66 12 -19 27 -40 33 -47 7 -7 18 -25 27 -40 l14
-27 -6 35 c-4 19 -11 40 -15 45 -4 6 -11 24 -15 40 -11 40 -10 39 -35 125 -12
41 -23 82 -25 90 -2 8 -8 35 -14 60 -10 44 -16 76 -25 135 -2 17 -8 50 -12 75
-24 152 -23 578 2 690 3 14 7 43 9 65 3 22 12 72 20 110 9 39 18 83 20 98 3
15 10 38 17 50 6 12 11 23 10 25 -1 1 -2 3 -1 5 0 1 2 10 4 19 4 24 44 148 54
173 5 11 19 47 32 80 12 33 26 64 31 70 4 5 8 17 8 27 0 10 5 18 10 18 6 0 10
7 10 16 0 9 9 29 21 45 11 16 17 29 14 29 -4 0 -1 10 7 23 8 12 30 49 48 82
42 77 150 239 161 243 5 2 9 10 9 17 0 8 6 18 13 22 8 4 18 15 23 24 8 14 45
60 107 133 41 48 171 177 223 222 31 27 62 54 68 59 6 6 29 24 51 40 22 17 42
33 45 36 3 3 42 32 87 63 213 146 476 274 708 342 121 36 156 45 185 50 19 3
38 8 41 10 3 2 21 6 40 9 19 3 59 10 89 15 30 5 82 12 115 15 33 4 76 8 95 10
46 6 339 5 410 0 92 -8 253 -30 300 -41 8 -2 44 -10 80 -18 36 -8 86 -20 110
-27 54 -15 51 -14 70 -21 8 -3 51 -18 95 -33 106 -37 171 -64 285 -120 138
-67 177 -90 354 -208 10 -6 24 -17 30 -22 6 -6 27 -22 46 -35 19 -13 37 -27
40 -30 3 -3 19 -18 36 -33 l31 -28 532 531 c350 349 530 534 525 543 -18 30
-107 130 -199 222 -127 128 -214 205 -334 297 -20 15 -40 31 -46 36 -5 4 -32
23 -60 42 -27 19 -51 37 -53 42 -2 4 -8 8 -13 8 -11 0 -70 40 -80 53 -3 5 -8
8 -10 6 -2 -1 -24 10 -49 26 -54 35 -323 172 -400 204 -284 120 -613 207 -890
236 -30 3 -68 8 -85 11 -34 6 -501 14 -507 9z"/>
<path d="M1499 4303 c-9 -10 -44 -44 -77 -76 -34 -33 -81 -82 -104 -109 -24
-28 -48 -55 -53 -62 -6 -6 -26 -31 -45 -56 -19 -25 -37 -47 -40 -50 -16 -14
-140 -207 -140 -217 0 -7 -4 -13 -9 -13 -12 0 -160 -302 -194 -395 -77 -209
-129 -421 -152 -620 -3 -27 -8 -70 -11 -95 -6 -55 -6 -370 0 -425 3 -22 7 -62
10 -90 5 -43 20 -143 31 -210 2 -11 10 -46 19 -79 9 -32 13 -63 10 -67 -3 -5
0 -9 7 -9 7 0 10 -3 7 -6 -4 -3 4 -35 17 -70 13 -35 22 -64 20 -64 -12 0 36
-87 88 -160 127 -177 200 -263 369 -431 138 -138 363 -324 477 -394 9 -5 41
-27 71 -47 31 -21 60 -38 65 -38 4 0 16 -6 24 -14 21 -17 109 -66 230 -126 98
-48 342 -150 360 -150 5 0 22 -5 38 -12 28 -11 32 -12 68 -22 11 -3 61 -17
110 -31 50 -14 103 -28 119 -31 16 -2 32 -7 36 -9 4 -2 20 -6 36 -9 16 -3 70
-12 119 -20 50 -9 115 -18 145 -21 30 -4 89 -10 130 -15 80 -8 538 -5 605 5
54 8 116 25 140 38 11 6 22 12 25 12 3 0 14 6 25 12 11 6 23 12 27 12 31 6
282 139 335 178 17 12 32 20 35 18 2 -3 15 6 28 20 13 14 27 25 32 25 7 0 124
84 138 100 3 3 27 23 55 45 78 63 266 252 337 340 74 91 144 189 208 290 50
79 181 337 175 343 -2 3 -26 -6 -52 -18 -164 -77 -273 -117 -462 -171 -74 -21
-89 -24 -146 -35 -16 -3 -48 -9 -70 -14 -22 -5 -67 -12 -100 -15 -33 -4 -69
-9 -80 -11 -76 -15 -385 -21 -515 -10 -101 8 -179 17 -204 22 -12 2 -34 7 -51
9 -248 44 -481 116 -690 215 -49 24 -96 44 -103 46 -8 1 -21 9 -30 17 -10 7
-44 29 -77 47 -101 55 -297 191 -371 256 -12 10 -44 38 -70 60 -253 215 -501
541 -654 859 -71 149 -168 407 -170 457 -1 4 -7 26 -15 48 -8 22 -14 43 -14
45 0 3 -4 29 -10 58 -6 28 -13 63 -15 77 -3 14 -7 36 -10 50 -3 14 -8 45 -11
70 -3 25 -8 61 -10 80 -13 84 -19 401 -11 490 3 25 7 73 10 108 3 34 8 67 11
72 10 17 -10 11 -26 -7z"/>
<path d="M6771 2973 c-38 -102 -169 -376 -182 -381 -5 -2 -9 -8 -9 -14 0 -16
-139 -223 -214 -318 -139 -177 -355 -387 -523 -510 -61 -44 -62 -46 -93 -140
-17 -52 -47 -135 -67 -185 -57 -143 -193 -403 -215 -413 -5 -2 -8 -9 -8 -15 0
-7 -11 -25 -25 -41 -14 -16 -25 -32 -25 -36 0 -7 -105 -145 -168 -220 -47 -56
-234 -243 -293 -292 -24 -20 -54 -45 -66 -55 -12 -10 -30 -23 -40 -30 -33 -23
61 19 172 75 61 30 120 60 132 66 13 6 23 14 23 19 0 4 5 7 11 7 37 0 343 215
502 351 71 62 317 303 317 312 0 3 12 18 28 34 15 16 36 40 47 54 73 91 97
122 140 184 27 39 52 72 55 75 6 6 11 14 88 145 102 173 123 215 222 440 53
120 150 438 175 570 7 39 33 190 40 235 8 52 16 170 12 170 -2 0 -18 -39 -36
-87z"/>
</g>
</svg>
